<?xml version="1.0" ?><svg id="Layer_1" style="enable-background:new 0 0 48 48;" version="1.1" viewBox="0 0 48 48" xml:space="preserve" xmlns="http://www.w3.org/2000/svg" xmlns:xlink="http://www.w3.org/1999/xlink"><style type="text/css">
	.st0{fill:#F7D442;}
	.st1{fill:#FCB017;}
	.st2{fill:#39414D;}
	.st3{fill:#2D3745;}
	.st4{fill:#9357A3;}
	.st5{fill:#79459B;}
	.st6{fill:#FFFFFF;}
	.st7{fill:#363F4A;}
	.st8{fill:#F8C147;}
	.st9{fill:#B18B2F;}
	.st10{fill:#E12526;}
	.st11{fill:#EF4642;}
	.st12{fill:#F1A91E;}
	.st13{fill:#70473D;}
	.st14{fill:#FEDC00;}
	.st15{fill:#89538F;}
	.st16{fill:#734B76;}
	.st17{fill:#4B5461;}
	.st18{fill:#8D5645;}
	.st19{fill:#9C6551;}
	.st20{fill:#A5582B;}
	.st21{fill:#4888C8;}
	.st22{fill:#F2F2F2;}
	.st23{fill:#45A447;}
	.st24{fill:#69BD45;}
	.st25{fill:#FED401;}
	.st26{fill:#F8A790;}
	.st27{fill:#9D6CAE;}
	.st28{fill:#D98977;}
	.st29{fill:#416AB3;}
	.st30{fill:#56B9E9;}
	.st31{fill:#47383C;}
	.st32{fill:#5B474C;}
	.st33{fill:#EB3093;}
	.st34{fill:#E860A3;}
	.st35{fill:#095F79;}
	.st36{fill:#D12027;}
	.st37{fill:#E47825;}
	.st38{fill:#7B3318;}
	.st39{fill:#D1218F;}
	.st40{fill:#F6EB0C;}
	.st41{fill:#010101;}
	.st42{fill:none;}
	.st43{fill:#EA9723;}
	.st44{fill:#8954A2;}
	.st45{fill:#663092;}
	.st46{fill:#9560A8;}
	.st47{fill:#7CC242;}
	.st48{fill:#36783A;}
	.st49{fill:#C62127;}
	.st50{fill:#F15959;}
	.st51{fill:#7A4E9F;}
	.st52{fill:#8852A1;}
	.st53{fill:#9762A9;}
</style><g><g><path class="st3" d="M20.7,14.2c-0.1,0-0.1,0-0.2,0.1c0,0-0.1,0.1-0.1,0.2c0,0.1,0,0.1,0.1,0.2c1.6,1.8,2.6,4.1,2.7,6.5h0.5    c-0.1-2.5-1.1-5-2.8-6.8C20.9,14.2,20.8,14.2,20.7,14.2z"/><path class="st3" d="M27.5,14.3c0,0-0.1-0.1-0.2-0.1c-0.1,0-0.1,0-0.2,0.1c-1.7,1.9-2.7,4.3-2.8,6.8h0.5c0.1-2.4,1.1-4.7,2.7-6.5    c0,0,0.1-0.1,0.1-0.2C27.5,14.4,27.5,14.3,27.5,14.3z"/></g><g><g><g><g><path class="st30" d="M41.6,27.4c-0.6-1.3-1.5-2.6-2.7-3.3c-1.1-0.7-2.5-0.9-3.8-1.1c-3.3-0.4-7.2-0.1-10.4,0.4       c0.7,2.1,0.1,4.4,0,6.6c-0.5,6.2,3.2,8.8,5.5,10.5c1.3,1,3.4,2.8,7.1,0.6C41.9,38.4,43.8,32.5,41.6,27.4z"/><path class="st21" d="M41.6,27.4c-0.6-1.3-1.5-2.6-2.7-3.3c-1.1-0.7-2.5-0.9-3.8-1.1c-2.9-0.3-7.4,0.1-10.4,0.5       c1.1,3,5.9,9.8,16.7,13.1C42.9,33.6,42.8,30.2,41.6,27.4z"/></g><path class="st30" d="M44.3,5.7C38,6,29.6,11.3,24.6,23.5c5.1,1,10.7,0.9,15.9,0.8c2.9-0.1,5.3-0.7,5.2-5c0-1.4-0.3-2.9,0-4.3      c0.2-1,0.7-1.9,1.2-2.9C49.2,7.7,47.5,5.6,44.3,5.7z"/><path class="st21" d="M47.8,7.6c-0.5-1.6-1.9-1.9-3.6-1.9C38,6,29.6,11.3,24.6,23.5c0,0,0.1,0,0.1,0      C29.3,21.5,42.5,15.2,47.8,7.6z"/></g><g><g><path class="st30" d="M9.1,24.1c1.1-0.7,2.5-0.9,3.8-1.1c3.3-0.4,7.2-0.1,10.4,0.4c-0.7,2.1-0.1,4.4,0,6.6       c0.5,6.2-3.2,8.8-5.5,10.5c-1.3,1-3.4,2.8-7.1,0.6c-2.3-1.3-4-3.5-4.8-6C4.5,30.6,6.4,25.8,9.1,24.1z"/><path class="st21" d="M9.1,24.1c1.1-0.7,2.5-0.9,3.8-1.1c2.9-0.3,7.4,0.1,10.4,0.5c-1.1,3-5.9,9.8-16.7,13.1       c-0.2-0.5-0.4-1-0.6-1.5C4.5,30.6,6.4,25.8,9.1,24.1z"/></g><path class="st30" d="M3.8,5.7c3.7,0.2,7.5,2,10.3,4.4c4.1,3.4,7.3,8.4,9.4,13.4c-5.1,1-10.7,0.9-15.9,0.8      c-2.9-0.1-5.3-0.7-5.2-5c0-1.4,0.3-2.9,0-4.3C2,14,1.5,13.1,1,12.1c-0.5-0.9-0.9-1.9-1-2.9C-0.2,7.1,1,5.6,3.8,5.7z"/><path class="st21" d="M0.2,7.6c0.5-1.6,1.9-1.9,3.6-1.9c3.7,0.2,7.5,2,10.3,4.4c4.1,3.4,7.3,8.4,9.4,13.4c0,0-0.1,0-0.1,0      C18.7,21.5,5.5,15.2,0.2,7.6z"/></g></g><g><path class="st31" d="M24,20.3c-0.5,0-0.8,0.4-0.8,0.8v1.7c0,0.5,0.4,0.8,0.8,0.8c0.5,0,0.8-0.4,0.8-0.8v-1.7     C24.9,20.7,24.5,20.3,24,20.3z"/><path class="st31" d="M24,27c-0.5,0-0.8,0.4-0.8,0.8v5.3c0,0.5,0.4,0.8,0.8,0.8c0.5,0,0.8-0.4,0.8-0.8v-5.3     C24.9,27.4,24.5,27,24,27z"/><path class="st32" d="M24,21.8c-0.9,0-1.6,0.7-1.6,1.6v3.2c0,0.9,0.7,1.6,1.6,1.6s1.6-0.7,1.6-1.6v-3.2     C25.6,22.5,24.9,21.8,24,21.8z"/></g></g></g></svg>